<?xml version="1.0" encoding="utf-8" ?>
<svg xmlns="http://www.w3.org/2000/svg" xmlns:xlink="http://www.w3.org/1999/xlink" width="2648" height="460">
	<path fill="#FEFEFE" d="M2145.47 77.4998C2154.11 76.3355 2162.82 76.6667 2170.33 81.6082C2176.94 85.9581 2181.42 93.0981 2182.99 100.806C2184.63 108.889 2183.09 117.709 2178.47 124.585C2173.74 131.608 2167.32 135.057 2159.2 136.686C2153.09 138.674 2145.77 137.617 2140.05 134.731C2132.99 131.166 2127.88 124.204 2125.5 116.772C2122.88 108.611 2123.4 99.6681 2127.37 92.0222C2131.32 84.3947 2137.4 80.0295 2145.47 77.4998Z"/>
	<path fill="#FEFEFE" d="M2141.27 166.5C2149.83 166.409 2173.63 163.892 2179.76 168.633C2180.79 170.238 2181.35 171.864 2181.51 173.768C2182.96 190.46 2181.71 208.227 2181.74 225.026Q2181.91 277.617 2181.41 330.205C2181.35 334.1 2182 341.944 2179.04 344.768C2175.44 348.199 2168.4 347.081 2163.75 347.004C2155.07 347.135 2134.15 349.599 2127.48 344.307C2125.94 341.021 2125.88 336.844 2125.82 333.254C2125.32 304.112 2126.13 274.836 2126.02 245.668C2125.93 222.316 2124.68 198.336 2125.93 175.039C2126.07 172.567 2125.92 169.849 2127.74 167.964C2131.72 165.983 2136.92 166.519 2141.27 166.5Z"/>
	<path fill="#FEFEFE" d="M1802.48 161.5C1806.39 161.198 1810.3 161.338 1814.21 161.545C1835.34 162.661 1859.13 171.229 1873.54 187.343C1876.26 190.376 1880.78 195.206 1880.55 199.403C1880.48 199.686 1880.4 199.953 1880.29 200.224C1877.73 206.605 1854.36 227.905 1848.11 230.659C1843.39 226.741 1838.6 222.355 1833.22 219.365C1822.76 213.555 1810.05 212.859 1798.65 216.169C1789.13 218.934 1781.34 224.871 1776.58 233.618C1770.66 244.503 1769.68 257.644 1773.24 269.441C1776.42 279.981 1783.09 289.234 1792.97 294.435C1803.23 299.834 1815.2 300.101 1826.1 296.659C1833.06 294.461 1844.7 289.195 1848.22 282.43C1855.09 285.011 1869 297.073 1872.39 303.369C1873.64 304.24 1874.89 305.133 1876.06 306.111C1878.36 308.028 1880.42 310.405 1880.72 313.477C1880.32 316.523 1878.86 318.738 1877.07 321.15C1865.33 336.97 1844.67 346.941 1825.52 349.713C1800.17 353.383 1775.84 349.061 1755.06 333.485Q1754.15 332.79 1753.25 332.074Q1752.36 331.357 1751.48 330.619Q1750.61 329.881 1749.75 329.122Q1748.89 328.362 1748.05 327.582Q1747.21 326.802 1746.39 326.002Q1745.57 325.201 1744.77 324.381Q1743.97 323.561 1743.19 322.722Q1742.41 321.882 1741.65 321.024Q1740.89 320.166 1740.15 319.289Q1739.41 318.413 1738.7 317.519Q1737.98 316.625 1737.28 315.713Q1736.59 314.802 1735.92 313.874Q1735.25 312.946 1734.6 312.001Q1733.95 311.057 1733.32 310.097Q1732.69 309.137 1732.09 308.163Q1731.49 307.188 1730.91 306.199Q1730.33 305.209 1729.78 304.206Q1729.22 303.203 1728.69 302.187Q1728.16 301.171 1727.66 300.142Q1727.15 299.113 1726.67 298.072Q1726.19 297.031 1725.74 295.979Q1725.29 294.927 1724.86 293.864Q1724.43 292.801 1724.03 291.728Q1723.63 290.654 1723.25 289.572Q1722.87 288.489 1722.52 287.398Q1722.18 286.306 1721.85 285.206Q1721.53 284.107 1721.23 283Q1720.94 281.892 1720.67 280.778Q1720.4 279.664 1720.16 278.544Q1719.92 277.423 1719.71 276.297Q1719.49 275.172 1719.31 274.041Q1719.12 272.91 1718.96 271.775C1715.29 245.751 1719.94 219.031 1735.99 197.807C1752.5 175.992 1775.93 165.204 1802.48 161.5Z"/>
	<path fill="#FEFEFE" d="M2296.86 77.5C2304.42 77.5952 2313.03 77.4701 2320.2 80.176C2324.46 81.781 2327.92 84.5289 2329.8 88.7304C2332.46 94.6479 2333.28 122.053 2331.02 128.061C2323.35 133.462 2309.72 125.414 2299.99 129.872C2285.44 136.546 2293.55 155.118 2289.25 166.763C2302.46 166.686 2316.23 165.835 2329.36 167.166C2330.15 168.364 2330.85 169.695 2331.18 171.102C2332.12 175.146 2332.68 205.248 2330.84 208.167C2321.89 212.14 2299.85 209.971 2289.26 209.872C2291.51 213.702 2290.94 328.154 2290.04 341.879C2288.99 344.441 2287.08 345.271 2284.77 346.5C2279.78 348.399 2246.67 347.53 2240.75 346.097C2238.53 345.561 2236.21 344.992 2235.29 342.715C2232.57 335.957 2234.3 322.804 2234.32 315.364C2234.35 301.074 2236.62 216.751 2232.7 210.198C2225.52 209.617 2217.66 211.404 2210.65 209.53C2205.41 208.127 2211.14 173.571 2207.32 167.13C2216.02 166.585 2224.76 166.542 2233.47 166.357C2239.67 156.877 2226.92 120.868 2249.06 96.2761C2261.4 82.5691 2279.14 78.4567 2296.86 77.5Z"/>
	<path fill="#FEFEFE" d="M2481.27 166.5C2497.8 166.276 2516.1 164.728 2532.47 167.317C2532.85 168.228 2533.16 169.188 2533.08 170.186C2532.41 178.387 2517.39 212.278 2513.14 223.234C2489.32 284.54 2466.17 346.564 2440.48 407.087C2439.07 410.403 2437.91 413.871 2435.17 416.34C2429.29 418.11 2390.56 417.871 2385.42 415.863C2380.01 407.419 2410.47 358.283 2409.3 347.189C2409.29 347.126 2409.28 347.063 2409.27 347C2409.39 346.53 2409.5 345.991 2409.46 345.503C2409.02 340.399 2403.48 326.63 2399.78 323.5C2399.87 323.293 2399.91 323.205 2399.97 322.969C2400.27 321.72 2399.91 320.189 2399.5 319.006C2388.84 288.773 2375.56 259.047 2363.89 229.152Q2355.77 208.032 2347.43 186.995C2344.89 180.502 2343.08 172.962 2339.2 167.175C2357.59 165.959 2376.25 166.342 2394.67 166.859C2395.05 167.138 2395.4 167.419 2395.73 167.757C2398.86 170.977 2435.9 274.564 2435.87 278.286C2435.87 278.869 2435.86 279.445 2435.8 280.025C2442.15 273.908 2465.34 202.629 2470.35 188.573C2472.33 183.001 2474.95 171.816 2478.87 167.714C2479.28 167.285 2480.69 166.796 2481.27 166.5Z"/>
	<path fill="#FEFEFE" d="M1403.28 161.5Q1403.62 161.487 1403.97 161.478C1427.82 160.854 1451.09 166.757 1468.78 183.583Q1469.57 184.349 1470.34 185.135Q1471.12 185.92 1471.87 186.725Q1472.62 187.529 1473.36 188.351Q1474.09 189.174 1474.8 190.014Q1475.52 190.855 1476.21 191.712Q1476.9 192.57 1477.57 193.444Q1478.24 194.318 1478.89 195.209Q1479.54 196.099 1480.17 197.005Q1480.79 197.912 1481.4 198.833Q1482 199.754 1482.58 200.69Q1483.17 201.626 1483.72 202.576Q1484.28 203.526 1484.82 204.489Q1485.35 205.452 1485.86 206.429Q1486.37 207.405 1486.86 208.393Q1487.35 209.382 1487.81 210.382Q1488.27 211.382 1488.71 212.393Q1489.15 213.404 1489.56 214.426Q1489.98 215.447 1490.36 216.479Q1490.75 217.51 1491.11 218.551Q1491.48 219.591 1491.81 220.641Q1492.15 221.69 1492.46 222.747Q1492.77 223.804 1493.06 224.869Q1493.34 225.933 1493.6 227.004Q1493.86 228.076 1494.09 229.153Q1494.32 230.23 1494.53 231.313Q1494.73 232.395 1494.91 233.482Q1495.09 234.57 1495.24 235.661Q1495.39 236.752 1495.52 237.847Q1495.64 238.942 1495.74 240.039Q1495.84 241.137 1495.91 242.237Q1495.98 243.336 1496.03 244.437Q1496.07 245.538 1496.09 246.64C1496.28 255.352 1495.46 266.218 1489.07 272.76C1486.44 275.452 1483.11 276.71 1479.46 277.32C1467.89 279.254 1454.38 277.978 1442.63 277.961L1371.54 277.944C1375.97 282.067 1377.47 289.543 1381.99 294.232C1390.79 303.357 1407.44 306.254 1419.59 306.45C1431.77 306.647 1452.24 303.893 1461.42 295.026Q1462.17 295.391 1462.86 295.853C1466.65 298.344 1473.65 306.981 1474.6 311.504C1474.94 311.737 1475.28 311.978 1475.61 312.243C1478.22 314.382 1481.34 318.492 1481.68 321.946C1481.88 324.038 1481 326.071 1479.67 327.65C1467.53 342.085 1443.02 348.812 1425.1 350.469C1398.19 352.959 1371.96 346.267 1350.97 328.788C1332.13 313.111 1321 290.737 1318.79 266.443C1316.3 239.128 1322.2 214.01 1340.03 192.647C1356.23 173.249 1378.47 163.751 1403.28 161.5ZM1401.6 209.5C1388.02 214.108 1381.48 217.69 1374.72 230.616C1373.42 233.109 1372.24 236.428 1370.22 238.384L1412.75 238.24L1444.96 238.171C1446.04 233.874 1443.33 227.26 1441.09 223.583C1436.64 216.275 1428.08 212.044 1420 210.155C1413.82 208.711 1407.86 208.92 1401.6 209.5Z"/>
	<path fill="#FEFEFE" d="M1599.8 161.5Q1603.33 161.267 1606.87 161.23C1630.02 160.943 1653.1 168.214 1669.91 184.655C1686.91 201.286 1695.28 224.781 1695.53 248.307C1695.62 256.703 1694.63 266.826 1688.41 273.066C1685.84 275.636 1682.98 276.861 1679.43 277.434C1667.83 279.308 1654.52 278.01 1642.72 277.995L1569.31 277.888C1574.37 282.133 1576.68 288.478 1580.99 293.371C1589 302.449 1603.69 305.709 1615.3 306.379C1629.16 307.179 1650.7 304.612 1661.53 294.954C1662.35 295.411 1663.13 295.92 1663.84 296.532C1666.8 299.054 1671.95 305.076 1672.28 309.02C1672.5 309.138 1672.71 309.265 1672.91 309.396C1675.92 311.321 1680.26 317.682 1680.96 321.277C1681.31 323.105 1681.25 324.952 1680.13 326.512C1671.56 338.446 1651.05 346.265 1637.16 348.754C1609.37 353.739 1580.62 350.165 1557.09 333.779C1536.32 319.318 1523.73 297.725 1519.32 272.998C1514.67 246.911 1519.24 220.958 1534.56 199.127C1550.58 176.286 1573.14 166.186 1599.8 161.5ZM1601.32 209.5C1590.2 212.777 1581.95 216.199 1576.08 226.947C1573.94 230.869 1572.15 235.219 1569.35 238.724L1612.75 238.281L1644.89 238.277C1645.87 234.246 1642.88 227.415 1640.76 223.988C1636.06 216.379 1627.04 211.909 1618.56 209.964C1612.77 208.634 1607.17 208.981 1601.32 209.5Z"/>
	<path fill="#FEFEFE" d="M977.631 86.4997C983.956 86.0866 990.416 86.5902 996.678 87.4852C1015 90.1038 1046.4 103.377 1057.43 118.372C1058.73 120.137 1060.59 123.498 1060.12 125.767C1058.79 132.324 1036.36 158.211 1030.37 161.823C1030.18 161.459 1030.04 161.161 1029.74 160.873C1019.03 150.614 1001.08 140.763 986.072 140.242C978.838 139.991 970.146 141.364 964.715 146.516C960.67 150.354 958.247 156.184 958.156 161.747C957.835 181.467 1005.83 196.869 1020.61 204.412C1031.16 209.795 1041.83 216.408 1050.07 225.003C1063.24 238.732 1069.25 257.978 1068.8 276.784C1068.34 296.01 1062 313.452 1047.92 326.825C1027.23 346.472 1000.68 351.353 973 350.662C951.462 349.819 927.618 338.919 911.905 324.416C905.66 318.653 900.621 311.987 894.571 306.103C900.192 302.354 906.057 292.844 910.553 287.496C914.515 282.783 922.052 272.147 928.423 271.741C932.294 271.495 941.96 281.583 945.312 284.397C956.213 293.552 971.229 298.164 985.428 296.901C993.589 296.175 1003.52 293.218 1008.87 286.699C1012.07 282.787 1013.09 277.626 1012.55 272.669C1011.86 266.225 1008.2 260.993 1003.27 256.964C996.738 251.617 988.609 248.424 980.989 244.968C963.671 237.115 945.097 230.028 930.19 217.989C915.012 205.731 905.157 189.085 903.13 169.528C900.972 148.71 906.578 128.934 919.767 112.744C933.938 95.3478 956.117 88.727 977.631 86.4997Z"/>
	<path fill="#FEFEFE" d="M1919.26 83.4999C1930.69 83.1604 1956.74 80.5167 1966.4 84.9169C1969.43 93.0646 1969.93 181.644 1967.57 191.527C1972.45 189.195 1978.44 179.891 1982.57 175.833C1993.48 165.123 2006.64 161.485 2021.58 161.683C2037.93 161.9 2053.16 168.047 2064.59 179.855C2073.36 188.913 2078.29 200.087 2081.11 212.252C2087.18 238.345 2084.39 268.837 2084.28 295.622C2084.22 309.423 2084.98 323.282 2084.67 337.071C2084.62 339.41 2084.57 342.685 2082.79 344.398C2073.35 348.647 2045.14 348.462 2035.17 346.001C2034.16 345.752 2031.96 345.137 2031.21 344.413C2024.31 337.824 2034.48 300.002 2028.02 289.704C2027.98 289.635 2027.93 289.569 2027.89 289.501C2027.92 289.44 2027.96 289.379 2027.99 289.317C2028.04 289.213 2028.09 289.105 2028.14 289.001C2028.3 288.694 2028.47 288.404 2028.61 288.088C2032.53 279.633 2029.21 238.632 2025.9 229.878C2023.72 224.125 2018.63 218.832 2013.02 216.343C2005.52 213.017 1993.77 213.383 1986.15 216.417C1978.63 219.411 1973.6 225.583 1970.92 233.092C1964.79 250.221 1968.23 299.508 1968.77 319.978C1968.94 326.418 1970.24 336.332 1967.56 342.237C1966.56 344.432 1965.54 345.526 1963.23 346.332C1957.05 348.492 1922.81 348.313 1917.02 345.406C1914.96 344.367 1913.76 342.758 1913.08 340.579C1911.6 335.845 1913.1 289.127 1913.12 279.801L1913.24 91.4609C1913.25 89.7471 1913.38 87.7194 1914.24 86.2023C1915.37 84.1963 1917.2 84.1267 1919.26 83.4999Z"/>
	<path fill="#FEFEFE" d="M1209.34 161.5C1226.52 161.393 1242.34 165.512 1256.72 175.108C1277.21 188.776 1288.7 210.116 1293.4 233.917C1298.76 261.041 1294.82 292.094 1279.19 315.343C1267.71 332.409 1249.35 345.813 1228.99 349.793C1212.43 353.03 1189.17 350.095 1174.79 340.961C1169.05 337.317 1164.64 332.228 1159.02 328.461C1159.58 329.459 1160.02 330.568 1160.23 331.697C1161.55 338.818 1161.47 384.077 1158.44 388.524C1159.32 389.917 1159.86 391.396 1160.07 393.033C1160.79 398.528 1161.06 410.556 1157.49 415.099C1149.04 418.647 1116.16 418.472 1107.6 415.069C1103.37 413.39 1104.6 404.202 1104.63 400.212L1104.3 216.21C1104.35 207.113 1106.63 173.853 1103.63 167.189C1114.52 165.977 1137.9 163.801 1148.02 166.784C1151.24 167.732 1153.96 169.472 1155.58 172.492C1157.83 176.699 1156.27 184.547 1154.96 188.9C1158.61 186.779 1161.69 182.303 1164.84 179.323C1178.02 166.826 1191.51 162.732 1209.34 161.5ZM1194.41 213.5C1182.46 216.071 1172.79 220.512 1165.91 231.165C1159.1 241.72 1158.15 255.252 1160.81 267.302C1163.12 277.72 1168.76 287.345 1177.91 293.16C1185.62 298.062 1194.76 299.498 1203.75 299.083C1214.16 298.47 1223.9 294.743 1230.96 286.76C1238.8 277.896 1242.15 265.404 1241.37 253.731C1240.6 242.241 1236.14 230.741 1227.35 223.012C1218.91 215.59 1207.45 212.528 1196.36 213.329Q1195.38 213.4 1194.41 213.5Z"/>
	<path fill="#FEFEFE" d="M435.181 42.2399C436.987 41.9753 438.811 41.7313 440.636 41.645C445.598 41.4103 451.003 43.6042 454.646 46.9164C459.479 51.3092 461.494 58.2935 460.963 64.6801C459.774 78.9622 452.38 95.2568 447.902 108.939C435.308 147.413 417.738 200.521 419.357 241.208Q443.877 206.185 470.549 172.771C479.334 161.591 488.005 149.548 498.115 139.551C508.167 129.612 521.016 123.225 535.341 123.328C544.833 123.397 554.932 126.486 561.671 133.429C567.068 138.99 569.895 146.567 570.293 154.242C571.419 175.973 555.624 214.051 555.611 239.224C555.609 242.533 556.455 244.169 558.725 246.463C561.657 246.108 572.128 238.24 576.406 236.306C585.072 232.39 594.89 229.713 604.414 229.214C620.49 228.371 751.126 238.071 762.342 242.289C754.616 244.517 729.036 245.255 718.937 246.268C675.652 250.611 631.989 250.571 600.062 284.614C589.905 295.444 581.765 308.116 571.866 319.192C563.698 328.331 555.327 333.799 542.732 334.45C535.773 334.81 529.164 333.304 523.9 328.506C511.179 316.912 510.566 288.984 509.766 272.52C509.342 263.783 508.32 215.467 512.052 211.353L510.9 211.584L511.28 209.858C510.808 210.035 510.364 210.225 509.933 210.489C505.809 213.014 501.621 223.005 499.295 227.285C478.45 265.626 462.973 305.883 449.849 347.447C445.942 359.821 441.534 372.429 438.801 385.109C436.152 394.999 433.934 406.576 427.573 414.83C422.753 421.086 415.26 424.939 407.466 425.88C400.412 426.731 393.091 425 387.512 420.5C383.394 417.177 380.377 412.754 379.176 407.579C375.19 390.402 376.061 367.995 375.43 350.225L372.608 250.831C371.984 229.923 371.774 208.882 369.397 188.083C362.542 198.523 357.299 210.544 351.683 221.695Q336.599 251.663 321.853 281.799C316.997 291.8 312.771 302.761 306.701 312.061C303.566 316.864 299.819 321.147 294.863 324.145C287.532 328.582 277.912 329.916 269.628 327.806C241.669 320.684 237.764 289.452 225.159 268.359C218.851 257.805 209.797 248.303 198.979 242.329C172.408 227.655 118.555 226.279 86.6509 218.3C116.197 215.127 151.93 216.91 179.709 206.452C203.505 197.494 219.005 180.829 234.231 161.268C238.306 156.033 242.463 149.276 247.414 144.888C251.905 140.908 258.067 138.312 263.958 137.378C270.141 136.397 277.344 137.066 282.499 140.925C286.696 144.068 288.897 149.213 288.89 154.387C288.88 161.371 286.108 168.48 284.063 175.086C278.586 192.775 270.642 214.551 273.362 233.188C273.638 235.08 273.773 236.323 275.33 237.5C285.137 230.494 293.218 214.36 300.342 204.499C327.784 166.518 397.225 60.2278 435.181 42.2399Z"/>
</svg>
